<svg width="114" height="114" viewBox="0 0 114 114" fill="none" xmlns="http://www.w3.org/2000/svg">
<rect width="114" height="114" rx="20" fill="#FAFAFA"/>
<path fill-rule="evenodd" clip-rule="evenodd" d="M22.812 88.7474C18.8823 88.7474 15.4166 87.8974 12.4148 86.1975C9.46753 84.4427 7.14802 82.0299 5.45602 78.959C3.81867 75.8334 3 72.2142 3 68.1014C3 60.863 4.80109 55.4068 8.40326 51.7328C12.0601 48.0038 16.8629 46.1394 22.812 46.1394C26.6871 46.1394 30.0982 46.962 33.0454 48.6071C36.0473 50.2522 38.3941 52.7198 40.086 56.01C41.778 59.2454 42.6239 63.2759 42.6239 68.1014C42.6239 72.2142 41.778 75.8334 40.086 78.959C38.3941 82.0299 36.0473 84.4427 33.0454 86.1975C30.0982 87.8974 26.6871 88.7474 22.812 88.7474ZM28.4608 77.7252C26.9326 78.7671 25.0497 79.2881 22.812 79.2881C20.6289 79.2881 18.7459 78.7671 17.1631 77.7252C15.6349 76.6834 14.4615 75.3124 13.6428 73.6125C12.8241 71.9126 12.4148 70.0755 12.4148 68.1014C12.4148 64.4822 13.3153 61.4936 15.1164 59.1357C16.9721 56.7777 19.5372 55.5987 22.812 55.5987C26.1958 55.5987 28.7611 56.8325 30.5075 59.3002C32.3086 61.713 33.2091 64.6467 33.2091 68.1014C33.2091 70.0207 32.7998 71.8303 31.9811 73.5302C31.2171 75.2301 30.0436 76.6285 28.4608 77.7252Z" fill="#FC9502"/>
<path fill-rule="evenodd" clip-rule="evenodd" d="M110 67.4434C110 70.3498 109.618 73.1738 108.854 75.9156C108.145 78.6575 107.026 81.0977 105.497 83.2363C103.969 85.3201 102.005 86.9103 99.6028 88.0071C98.0207 88.7199 96.1644 89.0489 94.0358 88.9941C91.9073 88.9941 89.8882 88.6926 87.9776 88.0893C86.1223 87.4313 81.6748 85.7314 80.6924 84.6346C80.6924 84.6346 74.7754 87.7192 73.8964 86.691C73.0173 85.6628 72.5057 74.3528 73.0173 66.1273C73.2269 62.7579 74.1498 52.6108 73.0173 49.8409C71.7338 46.7014 70.2962 43.7994 69.0868 41.5307L56.9099 44.5766V57.9018C56.9099 60.3695 57.1013 62.2339 57.483 63.4952C57.8647 64.7564 58.3835 65.6338 59.0385 66.1273C59.7476 66.566 60.5121 66.8128 61.3307 66.8676C62.2037 66.9224 63.0776 66.9499 63.9505 66.9499H65.3423V76.7382H64.1143C61.1128 76.7382 58.5473 76.5189 56.4186 76.0801C54.29 75.6414 52.5435 74.7915 51.1791 73.5302C49.8146 72.2142 48.8049 70.3223 48.15 67.8547C47.5496 65.3322 47.2494 62.0146 47.2494 57.9018V47.019L43.852 47.8763V39.2581L47.2494 38.2672V25H56.9099V35.4463L71.666 31.1541C72.3677 30.9386 73.116 30.9116 73.8964 31.1691C78.1341 32.5674 83.7205 49.0184 83.7205 49.0184C84.7582 48.2506 86.1223 47.7297 87.8139 47.4555C89.5065 47.1813 90.9525 47.0442 92.1529 47.0442C96.0283 47.0442 99.2753 47.9765 101.895 49.8409C104.57 51.6505 106.589 54.0907 107.953 57.1616C109.318 60.2324 110 63.6597 110 67.4434ZM97.7199 60.3695C99.303 62.0694 100.094 64.4274 100.094 67.4434C100.094 71.0078 99.3306 73.8318 97.8017 75.9156C96.2739 77.9445 94.2548 79.1236 91.7435 79.4526C89.2875 79.7268 86.6135 78.9865 83.7205 77.2317C80.8275 75.4769 80.6924 61.192 83.7205 59.1357C86.7486 57.0793 89.2056 56.7778 91.6617 57.1616C94.1729 57.5454 96.192 58.6147 97.7199 60.3695Z" fill="#FC9502"/>
</svg>
