<svg width="355" height="122" viewBox="0 0 355 122" fill="none" xmlns="http://www.w3.org/2000/svg">
<g clip-path="url(#clip0_32_67)">
<rect x="9.0625" y="6.99478" width="345.016" height="115.005" rx="8" fill="#D8D8D8"/>
<rect x="0.963501" y="0.515625" width="346.635" height="115.005" rx="8" fill="#FAFAFA"/>
<path d="M215.058 61.949C215.058 65.0937 214.643 68.1493 213.812 71.116C213.041 74.0827 211.825 76.723 210.163 79.037C208.502 81.2917 206.366 83.0123 203.755 84.199C202.035 84.9703 200.017 85.3263 197.703 85.267C195.389 85.267 193.194 84.9407 191.117 84.288C189.1 83.576 187.557 82.6267 186.489 81.44V85H175.809V22.7H186.489V42.013C187.617 41.1823 189.1 40.6187 190.939 40.322C192.779 40.0253 194.351 39.877 195.656 39.877C199.869 39.877 203.399 40.8857 206.247 42.903C209.155 44.861 211.35 47.5013 212.833 50.824C214.317 54.1467 215.058 57.855 215.058 61.949ZM204.289 61.949C204.289 58.6857 203.429 56.1343 201.708 54.295C200.047 52.3963 197.852 51.2393 195.122 50.824C192.452 50.4087 189.575 50.824 186.489 52.07V72.54C189.634 74.4387 192.541 75.2397 195.211 74.943C197.941 74.587 200.136 73.3113 201.797 71.116C203.459 68.8613 204.289 65.8057 204.289 61.949Z" fill="#FC9502"/>
<path d="M61.1135 43.17C58.5935 43.17 56.5835 43.38 55.0835 43.8C53.5835 44.22 52.5035 45 51.8435 46.14C51.2435 47.28 50.9135 48.96 50.8535 51.18H57.5135V60.63H50.8535V96.18H40.2335V60.63H33.6635V51.18H40.3235C40.3235 45.12 41.9735 40.41 45.2735 37.05C48.5735 33.69 53.8535 32.19 61.1135 32.55V43.17ZM78.2135 96H67.4135V33H78.2135V96ZM129.42 77.64H97.92C98.16 80.34 99.18 82.41 100.98 83.85C102.78 85.29 105 86.13 107.64 86.37C110.28 86.55 112.98 86.19 115.74 85.29C118.56 84.33 121.08 82.89 123.3 80.97L129.24 89.16C125.94 91.92 122.58 93.9 119.16 95.1C115.8 96.24 112.47 96.81 109.17 96.81C101.55 96.81 95.82 94.68 91.98 90.42C88.2 86.16 86.31 80.13 86.31 72.33C86.31 67.89 87.18 64.02 88.92 60.72C90.72 57.42 93.24 54.87 96.48 53.07C99.78 51.27 103.65 50.4 108.09 50.46C117.81 50.58 124.29 54.39 127.53 61.89C128.43 64.05 129 66.42 129.24 69C129.54 71.58 129.6 74.46 129.42 77.64ZM109.08 60.54C105.42 60.54 102.63 61.53 100.71 63.51C98.85 65.49 97.92 67.68 97.92 70.08H120.15C120.15 67.62 119.19 65.43 117.27 63.51C115.41 61.53 112.68 60.54 109.08 60.54ZM174.125 96H161.165L153.155 81.06L145.325 96H132.365L146.225 73.14L132.635 51H145.685L153.155 65.31L160.535 51H173.495L160.085 73.14L174.125 96ZM222.979 45.69C221.119 45.69 219.559 45.06 218.299 43.8C217.039 42.54 216.409 40.98 216.409 39.12C216.409 37.32 217.039 35.79 218.299 34.53C219.559 33.27 221.119 32.64 222.979 32.64C224.779 32.64 226.309 33.27 227.569 34.53C228.829 35.79 229.459 37.32 229.459 39.12C229.459 40.98 228.829 42.54 227.569 43.8C226.309 45.06 224.779 45.69 222.979 45.69ZM227.929 96H218.029V51H227.929V96ZM238.47 96V33H249.27V63.06L260.25 50.82H274.38L257.55 69.81L276.18 96H263.49L249.27 77.19V96H238.47ZM321.109 77.64H289.609C289.849 80.34 290.869 82.41 292.669 83.85C294.469 85.29 296.689 86.13 299.329 86.37C301.969 86.55 304.669 86.19 307.429 85.29C310.249 84.33 312.769 82.89 314.989 80.97L320.929 89.16C317.629 91.92 314.269 93.9 310.849 95.1C307.489 96.24 304.159 96.81 300.859 96.81C293.239 96.81 287.509 94.68 283.669 90.42C279.889 86.16 277.999 80.13 277.999 72.33C277.999 67.89 278.869 64.02 280.609 60.72C282.409 57.42 284.929 54.87 288.169 53.07C291.469 51.27 295.339 50.4 299.779 50.46C309.499 50.58 315.979 54.39 319.219 61.89C320.119 64.05 320.689 66.42 320.929 69C321.229 71.58 321.289 74.46 321.109 77.64ZM300.769 60.54C297.109 60.54 294.319 61.53 292.399 63.51C290.539 65.49 289.609 67.68 289.609 70.08H311.839C311.839 67.62 310.879 65.43 308.959 63.51C307.099 61.53 304.369 60.54 300.769 60.54Z" fill="#FC9502"/>
</g>
<defs>
<clipPath id="clip0_32_67">
<rect width="355" height="122" fill="white"/>
</clipPath>
</defs>
</svg>
