<svg width="271" height="88" viewBox="0 0 271 88" fill="none" xmlns="http://www.w3.org/2000/svg">
<g clip-path="url(#clip0_10_118)">
<path d="M121.094 62.2734V80.0859C121.094 82.2995 121.341 83.7578 121.836 84.4609C122.357 85.1641 123.568 85.776 125.469 86.2969L126.445 86.5703V87.9766H111.602V86.5312C113.685 86.1667 115 85.6198 115.547 84.8906C116.094 84.1615 116.367 83.263 116.367 82.1953V38.4453C116.367 36.6745 116.276 35.5807 116.094 35.1641C115.703 34.2526 114.245 33.7969 111.719 33.7969L111.523 32.4688L121.094 30.0469V32.7812C123.776 30.8281 126.81 29.8516 130.195 29.8516C133.919 29.8516 137.109 31.2318 139.766 33.9922C142.422 36.7266 143.75 40.6719 143.75 45.8281C143.75 50.9583 142.253 55.0859 139.258 58.2109C136.055 61.5703 132.292 63.263 127.969 63.2891C125.781 63.2891 123.49 62.9505 121.094 62.2734ZM121.094 58.3672C122.995 59.6432 125.169 60.2812 127.617 60.2812C130.482 60.2812 133.086 59.2786 135.43 57.2734C137.799 55.2422 138.984 51.9609 138.984 47.4297C138.984 43.3672 138.203 40.3333 136.641 38.3281C135.104 36.2969 133.581 34.9688 132.07 34.3438C130.56 33.6927 129.049 33.4062 127.539 33.4844C125.43 33.5885 123.294 34.4089 121.133 35.9453L121.094 58.3672ZM151.566 37.1172C150.029 39.8255 149.261 43.0156 149.261 46.6875C149.261 50.3333 150.264 53.3021 152.269 55.5938C154.274 57.8854 156.826 59.0443 159.925 59.0703C163.024 59.0703 165.862 58.4062 168.441 57.0781L169.691 58.4453C168.441 59.6432 167.49 60.4635 166.839 60.9062C164.495 62.4688 161.813 63.263 158.792 63.2891C152.881 63.2891 148.727 60.776 146.331 55.75C145.055 53.0938 144.417 50.125 144.417 46.8438C144.417 41.349 146.084 37.026 149.417 33.875C152.256 31.1927 155.55 29.8516 159.3 29.8516C163.102 29.8516 166.8 31.1276 170.394 33.6797C170.836 33.9661 170.889 34.6693 170.55 35.7891C170.211 36.9089 169.508 37.6901 168.441 38.1328C167.633 38.1328 166.8 37.5339 165.941 36.3359C165.107 35.112 164.626 34.4349 164.495 34.3047C163.219 32.8984 161.553 32.1823 159.495 32.1562C156.11 32.1562 153.467 33.8099 151.566 37.1172ZM168.756 32.3906V30.5938H182.155V32.3906C180.097 32.3906 179.082 33.0938 179.108 34.5C179.134 35.2292 179.381 36.2188 179.85 37.4688L186.842 55.9062C188.483 52.0781 190.136 47.9115 191.803 43.4062L194.733 35.3984C195.28 33.8359 194.837 32.8854 193.405 32.5469C192.91 32.4427 192.298 32.3906 191.569 32.3906V30.5938H203.405V32.3906C201.53 32.4427 200.228 32.9896 199.498 34.0312C199.186 34.5 197.975 37.4427 195.866 42.8594C193.782 48.276 190.644 55.776 186.452 65.3594C182.285 74.9688 179.928 80.2682 179.381 81.2578C177.636 84.4089 175.618 86.4401 173.327 87.3516C172.051 87.7682 170.722 87.9766 169.342 87.9766C167.702 87.9766 166.204 87.638 164.85 86.9609C163.47 86.2839 162.78 85.3984 162.78 84.3047C162.754 83.237 163.001 82.5078 163.522 82.1172C164.043 81.7266 164.603 81.5443 165.202 81.5703C166.556 81.5964 167.728 82.2865 168.717 83.6406C169.681 85.0208 170.592 85.724 171.452 85.75C172.311 85.75 173.248 85.138 174.264 83.9141C175.306 82.7161 176.386 80.776 177.506 78.0938L181.178 69.3828L184.108 61.8828L175.084 38.6406C174.199 36.349 173.366 34.7344 172.584 33.7969C171.803 32.8594 170.527 32.3906 168.756 32.3906ZM207.978 37.1172C206.442 39.8255 205.673 43.0156 205.673 46.6875C205.673 50.3333 206.676 53.3021 208.681 55.5938C210.686 57.8854 213.239 59.0443 216.338 59.0703C219.436 59.0703 222.275 58.4062 224.853 57.0781L226.103 58.4453C224.853 59.6432 223.903 60.4635 223.252 60.9062C220.908 62.4688 218.226 63.263 215.205 63.2891C209.293 63.2891 205.14 60.776 202.744 55.75C201.468 53.0938 200.83 50.125 200.83 46.8438C200.83 41.349 202.496 37.026 205.83 33.875C208.668 31.1927 211.963 29.8516 215.713 29.8516C219.515 29.8516 223.213 31.1276 226.806 33.6797C227.249 33.9661 227.301 34.6693 226.963 35.7891C226.624 36.9089 225.921 37.6901 224.853 38.1328C224.046 38.1328 223.213 37.5339 222.353 36.3359C221.52 35.112 221.038 34.4349 220.908 34.3047C219.632 32.8984 217.965 32.1823 215.908 32.1562C212.522 32.1562 209.879 33.8099 207.978 37.1172ZM237.044 8.13281V53.1328C237.044 55.4766 237.122 56.9219 237.278 57.4688C237.565 58.5104 238.333 59.2917 239.583 59.8125C240.26 60.0729 241.132 60.3203 242.2 60.5547V62H227.473V60.5547C227.63 60.5026 228.19 60.3854 229.153 60.2031C231.315 59.7604 232.395 58.1979 232.395 55.5156V16.1016C232.395 14.513 232.291 13.5234 232.083 13.1328C231.64 12.2995 230.234 11.8828 227.864 11.8828L227.669 10.6328L237.044 8.13281ZM256.969 29.7344C261.969 29.7344 265.107 31.6875 266.383 35.5938C266.956 37.3646 267.112 39.0964 266.852 40.7891H248.141C247.802 42.6641 247.633 44.4089 247.633 46.0234C247.633 51.5182 249.273 55.2682 252.555 57.2734C254.299 58.3411 256.396 58.875 258.844 58.875C261.396 58.875 263.961 57.9375 266.539 56.0625L267.672 57.2344L266.578 58.5234C263.609 61.6224 260.094 63.1849 256.031 63.2109C253.609 63.2109 251.37 62.4818 249.312 61.0234C245.172 58.0807 243.102 53.6276 243.102 47.6641C243.102 41.362 244.859 36.5833 248.375 33.3281C251.031 31.0104 253.896 29.8125 256.969 29.7344ZM248.531 38.25H261.812C261.812 36.1927 261.344 34.6693 260.406 33.6797C259.469 32.6641 258.271 32.1562 256.812 32.1562C254.547 32.1562 252.698 32.8333 251.266 34.1875C249.833 35.5156 248.922 36.8698 248.531 38.25Z" fill="white"/>
<path d="M11.7969 8.13281V53.1328C11.7969 55.4766 11.875 56.9219 12.0312 57.4688C12.3177 58.5104 13.0859 59.2917 14.3359 59.8125C15.013 60.0729 15.8854 60.3203 16.9531 60.5547V62H2.22656V60.5547C2.38281 60.5026 2.94271 60.3854 3.90625 60.2031C6.06771 59.7604 7.14844 58.1979 7.14844 55.5156V16.1016C7.14844 14.513 7.04427 13.5234 6.83594 13.1328C6.39323 12.2995 4.98698 11.8828 2.61719 11.8828L2.42188 10.6328L11.7969 8.13281Z" fill="white"/>
<g clip-path="url(#clip1_10_118)">
<path d="M55.8163 45.1016C55.8163 55.0297 47.7986 63.0781 37.9082 63.0781C28.0178 63.0781 20 55.0297 20 45.1016C20 35.1734 28.0178 27.125 37.9082 27.125C40.4234 27.125 42.8175 27.6455 44.9895 28.5851M55.8163 45.1016C55.8163 37.6982 51.358 31.3402 44.9895 28.5851M55.8163 45.1016H65M65 45.1016H37.9082L54.4388 17.3389L55.2041 19.2891M65 45.1016L82.9697 15.8394M65 45.1016L60.102 32.1953M92.0918 46.0234L82.9697 15.8394M44.9895 28.5851L46.6327 29.3375M81.8065 11.9904L79.6939 5H70.051M81.8065 11.9904L82.9697 15.8394M81.8065 11.9904L60.102 32.1953M55.2041 19.2891L51.2245 9.14844M55.2041 19.2891L60.102 32.1953M48.4694 9.14844H54.4388M110 46.0234C110 55.9516 101.982 64 92.0918 64C82.2014 64 74.1837 55.9516 74.1837 46.0234C74.1837 36.0953 82.2014 28.0469 92.0918 28.0469C101.982 28.0469 110 36.0953 110 46.0234Z" stroke="white" stroke-width="2" stroke-linecap="round" stroke-linejoin="round"/>
<circle cx="38" cy="45" r="16.5" stroke="white" stroke-width="3"/>
<circle cx="92" cy="46" r="16.5" stroke="white" stroke-width="3"/>
</g>
</g>
<defs>
<clipPath id="clip0_10_118">
<rect width="271" height="88" fill="white"/>
</clipPath>
<clipPath id="clip1_10_118">
<rect width="92" height="61" fill="white" transform="translate(19 4)"/>
</clipPath>
</defs>
</svg>
